# Blender v2.79 (sub 0) OBJ File: ''
# www.blender.org
mtllib cuboMaterial.mtl
o Cube
v -1.531457 4.230207 1.524730
v -2.346233 0.931096 2.265128
v 0.860548 -0.064332 1.358562
v 1.675324 3.234780 0.618165
v -2.603315 3.759918 -1.750347
v -3.418090 0.460806 -1.009950
v -0.211309 -0.534621 -1.916516
v 0.603467 2.764490 -2.656913
vn -0.9220 0.2862 0.2607
vn -0.2343 -0.9486 0.2129
vn -0.3082 -0.1352 -0.9417
vn 0.2343 0.9486 -0.2129
vn 0.3082 0.1352 0.9417
vn 0.9220 -0.2862 -0.2607
usemtl Material.001
s off
f 1//1 5//1 6//1 2//1
usemtl Material.002
f 2//2 6//2 7//2 3//2
usemtl Material.003
f 5//3 8//3 7//3 6//3
usemtl Material.004
f 5//4 1//4 4//4 8//4
usemtl Material.005
f 1//5 2//5 3//5 4//5
usemtl Material.006
f 3//6 7//6 8//6 4//6
